<svg width="137" height="135" viewBox="0 0 137 135" fill="none" xmlns="http://www.w3.org/2000/svg">
<path fill-rule="evenodd" clip-rule="evenodd" d="M136.991 76.9854L99.2583 112.25L90.2201 92.5528L136.991 76.9854Z" fill="#FECF79"/>
<path fill-rule="evenodd" clip-rule="evenodd" d="M85.9801 87.206L75.1489 73.2578L136.992 76.9858L85.9801 87.206Z" fill="#FECF79"/>
<path fill-rule="evenodd" clip-rule="evenodd" d="M90.2205 92.5528L83.8011 97.1463L85.98 87.2057L136.992 76.9854L90.2205 92.5528Z" fill="#F6B946"/>
<path fill-rule="evenodd" clip-rule="evenodd" d="M91.7077 95.7904L83.8013 97.1461L90.2207 92.5526L91.7077 95.7904Z" fill="#E09D1F"/>
<path fill-rule="evenodd" clip-rule="evenodd" d="M9.81224 49.3934C10.2477 49.7869 10.8912 49.9053 11.4572 49.6447C12.2136 49.2934 12.5412 48.3974 12.1914 47.6424L12.0055 47.2305C11.6749 46.4603 10.7892 46.1123 10.026 46.4411C9.26126 46.7686 8.9089 47.6531 9.23507 48.4193L9.45619 48.9091C9.54543 49.0981 9.6661 49.2613 9.81224 49.3934Z" fill="#C6DCD7"/>
<mask id="mask0_1_503" style="mask-type:luminance" maskUnits="userSpaceOnUse" x="5" y="40" width="79" height="75">
<path fill-rule="evenodd" clip-rule="evenodd" d="M83.2327 91.8735L26.0526 40.1926L5.81492 62.5837L62.9951 114.265L83.2327 91.8735Z" fill="white"/>
</mask>
<g mask="url(#mask0_1_503)">
<path fill-rule="evenodd" clip-rule="evenodd" d="M48.1823 65.2644C48.4 65.4611 48.6758 65.5966 48.9881 65.6378C49.8136 65.7526 50.5742 65.1748 50.6862 64.3495C50.7467 63.9138 50.7588 63.4777 50.726 63.0525C50.6627 62.2232 49.9411 61.6008 49.109 61.6641C48.2768 61.7275 47.656 62.4533 47.7193 63.2826C47.7372 63.4966 47.7299 63.7176 47.6985 63.9411C47.6276 64.4542 47.8259 64.9422 48.1823 65.2644ZM41.351 62.2951C41.8043 62.7048 42.4799 62.8115 43.0541 62.515C43.3121 62.3824 43.5693 62.2627 43.8244 62.1573C44.5939 61.8395 44.9606 60.9572 44.6415 60.1892C44.3249 59.4154 43.4455 59.0514 42.6732 59.3693C42.3429 59.507 42.0078 59.6619 41.6708 59.8369C40.9302 60.2187 40.6402 61.127 41.0235 61.869C41.1086 62.0326 41.2198 62.1765 41.351 62.2951ZM42.2027 71.1277C42.5949 71.4821 43.1611 71.62 43.697 71.4378C44.051 71.3189 44.3903 71.1894 44.715 71.0548C45.4829 70.7329 45.8424 69.8495 45.5204 69.0816C45.2056 68.3148 44.3178 67.9513 43.5471 68.2734C43.2879 68.3833 43.017 68.4852 42.7316 68.5821C41.9439 68.8482 41.5188 69.7022 41.7864 70.4913C41.8704 70.746 42.0178 70.9606 42.2027 71.1277ZM35.3167 68.5398C35.4136 68.6274 35.5213 68.7031 35.644 68.7652C36.3845 69.1419 37.2932 68.8469 37.6699 68.1064C37.8072 67.8376 37.9479 67.5801 38.0973 67.3277C38.5221 66.609 38.2801 65.6777 37.5648 65.2642C36.8475 64.8407 35.9246 65.0795 35.5012 65.7968C35.3216 66.1004 35.1495 66.4136 34.9851 66.7364C34.6678 67.3573 34.8231 68.0937 35.3167 68.5398ZM71.1422 102.115C71.4763 102.417 71.9392 102.567 72.4173 102.481C72.7445 102.422 73.0745 102.363 73.4099 102.298C74.227 102.134 74.7575 101.34 74.5954 100.524C74.4346 99.707 73.6379 99.1766 72.8235 99.3373L71.8902 99.5125C71.0694 99.6593 70.524 100.44 70.6707 101.26C70.7293 101.603 70.9022 101.898 71.1422 102.115ZM33.5451 72.1756C33.7777 72.3859 34.0789 72.5172 34.4256 72.5353C34.4328 72.5364 34.4914 72.5405 34.4984 72.5387C34.8777 72.5537 35.1783 72.5599 35.4715 72.5622C36.3058 72.5684 36.9848 71.898 36.9897 71.0652C36.9961 70.2338 36.3269 69.5504 35.4928 69.547C35.2266 69.5448 34.9559 69.5386 34.6822 69.5296C33.8553 69.5002 33.0964 70.1391 33.0613 70.9663C33.0387 71.447 33.223 71.8845 33.5451 72.1756ZM14.0746 57.1027C14.5652 57.5461 15.3093 57.628 15.8953 57.2555C16.5957 56.8103 16.8019 55.8777 16.3552 55.1759L15.8415 54.3594C15.41 53.6498 14.4742 53.4352 13.7663 53.8737C13.0586 54.315 12.8422 55.2438 13.2835 55.9515L13.8127 56.7929C13.8884 56.91 13.9762 57.0137 14.0746 57.1027ZM25.2632 69.2825C25.3214 69.3351 25.3836 69.3832 25.4513 69.4281C25.7442 69.6197 26.0396 69.8054 26.3403 69.9823C27.0561 70.4044 27.9806 70.1698 28.404 69.4526C28.8303 68.7352 28.5829 67.8099 27.8756 67.3874C27.6145 67.2326 27.3573 67.0706 27.1012 66.9042C26.4036 66.4471 25.4687 66.6451 25.0144 67.3426C24.6036 67.971 24.7234 68.7946 25.2632 69.2825ZM62.3756 102.92C62.641 103.16 62.9928 103.308 63.3799 103.308C63.7144 103.31 64.0516 103.308 64.3914 103.301C65.2246 103.287 65.8856 102.598 65.872 101.765C65.857 100.933 65.1661 100.271 64.3359 100.287C64.0173 100.292 63.703 100.295 63.3899 100.293C62.5573 100.291 61.8797 100.963 61.8776 101.796C61.8759 102.241 62.0684 102.643 62.3756 102.92ZM19.3849 64.1347C19.9486 64.6442 20.8145 64.6574 21.396 64.1399C22.0184 63.5862 22.0727 62.6328 21.5191 62.0133L20.8822 61.2941C20.3451 60.6623 19.384 60.5956 18.7557 61.1439C18.1272 61.6894 18.0614 62.6405 18.6069 63.269L19.268 64.0183C19.3043 64.0591 19.3432 64.097 19.3849 64.1347ZM33.475 77.0702C33.7479 77.3168 34.1111 77.4636 34.5064 77.4578C35.3384 77.4485 36.0041 76.766 35.9933 75.9326C35.9904 75.6211 35.9932 75.3121 35.9979 75.0102C36.02 74.1795 35.3632 73.4883 34.5309 73.4649C33.6975 73.4458 33.0063 74.1026 32.9857 74.9347C32.9759 75.2753 32.9734 75.6198 32.9797 75.9696C32.9847 76.4076 33.1753 76.7993 33.475 77.0702ZM53.6477 101.846C53.8207 102.002 54.0358 102.121 54.2767 102.184C54.607 102.271 54.9398 102.353 55.2795 102.429C56.0913 102.61 56.8994 102.1 57.0818 101.287C57.2628 100.475 56.7483 99.6712 55.9406 99.4857C55.634 99.4172 55.3343 99.3442 55.0373 99.2681C54.2311 99.0569 53.4102 99.5395 53.1991 100.346C53.051 100.908 53.2436 101.48 53.6477 101.846ZM35.2385 85.6675C35.6455 86.0354 36.2427 86.166 36.79 85.9562C37.569 85.6579 37.9561 84.7859 37.6564 84.0084C37.5462 83.7137 37.4361 83.4219 37.3332 83.1311C37.0572 82.3452 36.1995 81.9303 35.4108 82.2064C34.6264 82.4808 34.2144 83.3413 34.4889 84.1257C34.6004 84.446 34.7191 84.7673 34.8421 85.0898C34.9319 85.3172 35.0685 85.5138 35.2385 85.6675ZM45.5812 98.3697C45.6423 98.4249 45.709 98.477 45.7796 98.5219C46.0693 98.7079 46.3644 98.8879 46.6679 99.0647C47.3851 99.4853 48.3093 99.2451 48.7299 98.5279C49.1532 97.8078 48.9114 96.8822 48.1916 96.4646C47.9262 96.3087 47.6648 96.1483 47.4089 95.9848C46.7073 95.5349 45.7756 95.7385 45.3257 96.4401C44.9219 97.0667 45.0444 97.8845 45.5812 98.3697ZM39.7158 93.2256C40.2676 93.7243 41.1184 93.7482 41.701 93.2534C42.3369 92.7146 42.4141 91.763 41.874 91.1285C41.6758 90.8952 41.486 90.6586 41.2988 90.419C40.7818 89.7621 39.8435 89.6401 39.1834 90.1516C38.5262 90.663 38.4075 91.6096 38.916 92.267C39.1291 92.5408 39.3492 92.8129 39.5762 93.0804C39.6201 93.1337 39.6666 93.1811 39.7158 93.2256Z" fill="#C6DCD7"/>
</g>
<path fill-rule="evenodd" clip-rule="evenodd" d="M79.8064 99.9347C80.1911 100.282 80.7459 100.421 81.2753 100.252L81.7711 100.093C82.5605 99.8312 82.9883 98.977 82.7265 98.1877C82.4674 97.3981 81.6118 96.9689 80.8224 97.2308L80.3605 97.3822C79.5677 97.6329 79.1295 98.4804 79.3817 99.2745C79.4661 99.5378 79.6155 99.7622 79.8064 99.9347Z" fill="#C6DCD7"/>
</svg>
